<svg width="215" height="156" viewBox="0 0 215 156" fill="none" xmlns="http://www.w3.org/2000/svg">
<path fill-rule="evenodd" clip-rule="evenodd" d="M134.452 85.8744C128.636 82.0416 124.798 75.4512 124.798 67.9623C124.798 60.4838 128.636 53.8882 134.452 50.0607C135.698 49.2453 136.233 47.7444 135.776 46.3318C134.582 42.5666 133.065 38.8844 131.222 35.3218C130.536 33.9975 129.113 33.3119 127.644 33.6183C120.82 35.0257 113.44 33.0834 108.153 27.7809C102.851 22.4941 100.914 15.1142 102.316 8.2901C102.622 6.83075 101.937 5.39218 100.612 4.71184C97.0549 2.87338 93.3676 1.3569 89.6129 0.157226C88.1899 -0.289406 86.6942 0.235127 85.8737 1.48154C82.0462 7.29816 75.4506 11.1465 67.9723 11.1361C60.4835 11.1361 53.8931 7.29816 50.0605 1.48154C49.2451 0.235127 47.7494 -0.289406 46.3316 0.157226C42.5665 1.35171 38.8896 2.86818 35.3218 4.70665C34.0027 5.39218 33.312 6.82036 33.6184 8.28491C35.0258 15.1142 33.0835 22.4941 27.7863 27.7809C22.4943 33.0834 15.1146 35.0206 8.29052 33.6079C6.826 33.3119 5.40303 33.9923 4.71231 35.3218C2.86868 38.8793 1.35223 42.5666 0.162958 46.3318C-0.288862 47.7444 0.240857 49.2453 1.48206 50.0607C7.30378 53.8882 11.1417 60.4734 11.1417 67.9727C11.1417 75.4512 7.30378 82.0416 1.48206 85.8744C0.23047 86.6897 -0.294055 88.1854 0.162958 89.6084C1.35223 93.3685 2.87907 97.0558 4.71231 100.613C5.39264 101.932 6.826 102.623 8.29052 102.317C15.1146 100.914 22.4943 102.852 27.7863 108.149C33.0835 113.446 35.0206 120.821 33.6184 127.645C33.312 129.109 34.0027 130.543 35.3218 131.223C38.8792 133.056 42.5665 134.583 46.3265 135.778C47.7494 136.23 49.2451 135.705 50.0605 134.453C53.8931 128.642 60.4835 124.794 67.9671 124.794C75.4506 124.789 82.0462 128.632 85.8737 134.453C86.6942 135.695 88.1899 136.23 89.6025 135.778C93.3676 134.583 97.0497 133.067 100.612 131.223C101.942 130.543 102.622 129.104 102.316 127.645C100.908 120.821 102.861 113.446 108.153 108.149C113.45 102.862 120.82 100.909 127.644 102.317C129.113 102.623 130.541 101.932 131.227 100.613C133.065 97.0506 134.582 93.3685 135.776 89.6032C136.223 88.1854 135.698 86.6897 134.452 85.8744ZM96.8264 96.8221C80.8881 112.755 55.0461 112.755 39.1129 96.8221C23.1798 80.8887 23.1798 55.0463 39.1181 39.1182C55.0461 23.1796 80.8881 23.1796 96.8264 39.1182C112.754 55.0463 112.754 80.8887 96.8264 96.8221Z" fill="white"/>
<path fill-rule="evenodd" clip-rule="evenodd" d="M214.132 57.5535C210.766 55.3359 208.546 51.5226 208.546 47.1894C208.546 42.8622 210.766 39.0459 214.132 36.8312C214.853 36.3595 215.163 35.491 214.898 34.6737C214.207 32.4951 213.33 30.3645 212.263 28.3031C211.866 27.5369 211.043 27.1402 210.192 27.3175C206.244 28.1318 201.974 27.008 198.915 23.9399C195.847 20.8808 194.726 16.6108 195.537 12.6622C195.715 11.8178 195.318 10.9855 194.552 10.5918C192.493 9.52805 190.36 8.6506 188.187 7.95645C187.364 7.69802 186.499 8.00153 186.024 8.72272C183.809 12.0883 179.993 14.315 175.666 14.309C171.333 14.309 167.519 12.0883 165.302 8.72272C164.83 8.00153 163.965 7.69802 163.144 7.95645C160.966 8.6476 158.838 9.52505 156.774 10.5888C156.011 10.9855 155.611 11.8118 155.788 12.6592C156.602 16.6108 155.479 20.8808 152.414 23.9399C149.352 27.008 145.082 28.1288 141.133 27.3115C140.286 27.1402 139.462 27.5339 139.063 28.3031C137.996 30.3615 137.119 32.4951 136.43 34.6737C136.169 35.491 136.475 36.3595 137.194 36.8312C140.562 39.0459 142.783 42.8562 142.783 47.1954C142.783 51.5226 140.562 55.3359 137.194 57.5535C136.469 58.0253 136.166 58.8908 136.43 59.7141C137.119 61.8897 138.002 64.0233 139.063 66.0817C139.456 66.8449 140.286 67.2446 141.133 67.0673C145.082 66.2559 149.352 67.3768 152.414 70.4419C155.479 73.5069 156.599 77.774 155.788 81.7225C155.611 82.5699 156.011 83.3993 156.774 83.793C158.832 84.8537 160.966 85.7372 163.141 86.4283C163.965 86.6898 164.83 86.3863 165.302 85.6621C167.519 82.2995 171.333 80.0728 175.663 80.0728C179.993 80.0698 183.809 82.2935 186.024 85.6621C186.499 86.3802 187.364 86.6898 188.181 86.4283C190.36 85.7372 192.49 84.8597 194.552 83.793C195.321 83.3993 195.715 82.5669 195.537 81.7225C194.723 77.774 195.853 73.5069 198.915 70.4419C201.98 67.3828 206.244 66.2529 210.192 67.0673C211.043 67.2446 211.869 66.8449 212.266 66.0817C213.33 64.0202 214.207 61.8897 214.898 59.7111C215.157 58.8908 214.853 58.0253 214.132 57.5535ZM192.361 63.888C183.139 73.1073 168.187 73.1073 158.967 63.888C149.748 54.6688 149.748 39.716 158.97 30.4998C168.187 21.2775 183.139 21.2775 192.361 30.4998C201.577 39.716 201.577 54.6688 192.361 63.888Z" fill="white"/>
<path d="M188.183 123.293H169.044V104.153C169.044 101.655 167.019 99.6302 164.521 99.6302C162.023 99.6302 159.998 101.655 159.998 104.153V123.293H140.859C138.364 123.293 136.336 125.317 136.336 127.815C136.336 130.313 138.364 132.338 140.859 132.338H159.998V151.477C159.998 153.975 162.023 156 164.521 156C167.019 156 169.044 153.975 169.044 151.477V132.338H188.183C190.681 132.338 192.706 130.313 192.706 127.815C192.706 125.317 190.681 123.293 188.183 123.293Z" fill="white"/>
</svg>
