<svg width="64" height="64" viewBox="0 0 64 64" fill="none" xmlns="http://www.w3.org/2000/svg">
<path d="M45.4326 29.4326H34.5674V18.5674C34.5674 17.1493 33.4181 16 32 16C30.5819 16 29.4326 17.1493 29.4326 18.5674V29.4326H18.5674C17.1513 29.4326 16 30.5819 16 32C16 33.4181 17.1513 34.5674 18.5674 34.5674H29.4326V45.4326C29.4326 46.8507 30.5819 48 32 48C33.4181 48 34.5674 46.8507 34.5674 45.4326V34.5674H45.4326C46.8507 34.5674 48 33.4181 48 32C48 30.5819 46.8507 29.4326 45.4326 29.4326Z" fill="#C88097"/>
<path fill-rule="evenodd" clip-rule="evenodd" d="M63.3005 40.4299C60.562 38.6255 58.7551 35.5227 58.7551 31.9969C58.7551 28.476 60.562 25.3707 63.3005 23.5687C63.8873 23.1848 64.1391 22.4782 63.924 21.8132C63.3616 20.0405 62.6476 18.3069 61.7797 16.6296C61.4569 16.0061 60.787 15.6834 60.095 15.8276C56.8823 16.4902 53.4079 15.5758 50.9188 13.0794C48.4224 10.5903 47.5104 7.11583 48.1706 3.90301C48.3148 3.21594 47.9921 2.53865 47.3686 2.21835C45.6938 1.3528 43.9578 0.638834 42.19 0.0740224C41.5201 -0.136253 40.8159 0.110699 40.4296 0.697516C38.6276 3.436 35.5224 5.2478 32.0016 5.24291C28.4758 5.24291 25.3731 3.436 23.5686 0.697516C23.1848 0.110699 22.4806 -0.136253 21.8131 0.0740224C20.0404 0.636389 18.3094 1.35035 16.6296 2.21591C16.0086 2.53865 15.6834 3.21105 15.8276 3.90056C16.4902 7.11583 15.5758 10.5903 13.0819 13.0794C10.5904 15.5758 7.11598 16.4878 3.9032 15.8227C3.2137 15.6834 2.54376 16.0037 2.21857 16.6296C1.35058 18.3045 0.636634 20.0405 0.076721 21.8132C-0.135997 22.4782 0.113396 23.1848 0.69776 23.5687C3.43865 25.3707 5.24553 28.4711 5.24553 32.0018C5.24553 35.5227 3.43865 38.6255 0.69776 40.4299C0.108506 40.8138 -0.138442 41.518 0.076721 42.188C0.636634 43.9582 1.35547 45.6942 2.21857 47.3691C2.53887 47.9901 3.2137 48.3153 3.9032 48.171C7.11598 47.5109 10.5904 48.4229 13.0819 50.9169C15.5758 53.4108 16.4878 56.8828 15.8276 60.0957C15.6834 60.7852 16.0086 61.46 16.6296 61.7803C18.3045 62.6434 20.0404 63.3623 21.8106 63.9246C22.4806 64.1374 23.1848 63.8904 23.5686 63.3011C25.3731 60.5651 28.4758 58.7533 31.9991 58.7533C35.5224 58.7509 38.6276 60.5602 40.4296 63.3011C40.8159 63.8855 41.5201 64.1374 42.1851 63.9246C43.9578 63.3623 45.6913 62.6483 47.3686 61.7803C47.9945 61.46 48.3148 60.7827 48.1706 60.0957C47.508 56.8828 48.4273 53.4108 50.9188 50.9169C53.4127 48.4278 56.8823 47.5084 60.095 48.171C60.787 48.3153 61.4594 47.9901 61.7821 47.3691C62.6476 45.6917 63.3616 43.9582 63.924 42.1855C64.1342 41.518 63.8873 40.8138 63.3005 40.4299ZM45.5862 45.5842C38.0824 53.0856 25.9159 53.0856 18.4145 45.5842C10.9131 38.0827 10.9131 25.916 18.4169 18.417C25.9159 10.913 38.0824 10.913 45.5862 18.417C53.0851 25.916 53.0851 38.0827 45.5862 45.5842Z" fill="#340F1B"/>
</svg>
