<svg width="285" height="285" viewBox="0 0 285 285" fill="none" xmlns="http://www.w3.org/2000/svg">
<path fill-rule="evenodd" clip-rule="evenodd" d="M279.831 136.999C266.452 133.136 255.212 122.835 250.764 108.54C246.323 94.2635 249.733 79.3935 258.563 68.6332C260.458 66.3366 260.588 63.1538 258.877 60.7287C254.361 54.2506 249.279 48.1223 243.644 42.4163C241.549 40.2954 238.426 39.8319 235.802 41.2896C223.611 48.0286 208.371 48.7033 195.13 41.721C181.868 34.7777 173.788 21.8406 172.412 7.98132C172.13 5.01362 169.968 2.67462 167.036 2.16232C159.153 0.765522 151.214 0.0603222 143.334 2.22462e-05C140.352 -0.00747775 137.808 1.88202 136.982 4.74852C133.13 18.1249 122.825 29.3877 108.543 33.8089C94.247 38.2561 79.388 34.8435 68.6172 26.0162C66.3206 24.1211 63.154 24.008 60.7127 25.7025C54.2346 30.2186 48.1163 35.2969 42.3973 40.9251C40.2863 43.0171 39.8159 46.1536 41.2705 48.7673C48.0127 60.968 48.6874 76.2085 41.715 89.4465C34.7617 102.712 21.8247 110.792 7.95922 112.148C4.98772 112.453 2.67542 114.596 2.14642 117.544C0.739619 125.43 0.0345189 133.369 0.000218932 141.263C-0.0234811 144.228 1.87902 146.778 4.73262 147.598C18.1188 151.447 29.3556 161.738 33.809 176.054C38.25 190.33 34.8375 205.189 26.0002 215.963C24.0952 218.262 23.9821 221.429 25.6996 223.874C30.2027 230.345 35.307 236.477 40.9191 242.18C43.0011 244.294 46.1475 244.761 48.7612 243.306C60.9551 236.577 76.193 235.893 89.441 242.862C102.698 249.828 110.776 262.755 112.151 276.615C112.436 279.592 114.606 281.918 117.528 282.434C125.407 283.821 133.353 284.546 141.24 284.593C144.224 284.61 146.768 282.721 147.581 279.847C151.447 266.478 161.742 255.218 176.027 250.774C190.31 246.32 205.183 249.739 215.946 258.58C218.25 260.462 221.423 260.595 223.851 258.893C230.329 254.377 236.457 249.296 242.163 243.661C244.297 241.573 244.741 238.423 243.29 235.819C236.551 223.628 235.899 208.391 242.855 195.136C249.828 181.898 262.736 173.794 276.598 172.429C279.586 172.141 281.902 169.974 282.427 167.049C283.821 159.156 284.529 151.227 284.573 143.33C284.584 140.359 282.694 137.815 279.831 136.999ZM214.507 180.241C193.544 220.121 144.213 235.467 104.336 214.514C64.459 193.56 49.1128 144.23 70.0792 104.359C91.02 64.475 140.35 49.1287 180.24 70.089C220.104 91.0355 235.451 140.367 214.507 180.241Z" fill="white"/>
<path fill-rule="evenodd" clip-rule="evenodd" d="M167.48 145.173C163.848 148.815 158.656 150.416 153.584 149.486L152.113 149.205C151.083 149.015 150.063 148.745 149.112 148.315C141.499 144.973 135.487 138.679 132.505 130.884C132.495 130.854 132.495 130.844 132.475 130.814C132.455 130.724 132.085 129.323 131.655 127.682C130.825 124.49 131.715 121.088 134.026 118.736C142.67 109.921 163.638 89.1875 164.028 88.7965C164.168 88.6665 164.459 88.3765 164.459 88.3765C164.679 87.3755 165.129 83.4335 161.337 82.3725C160.867 82.2325 160.437 82.0025 159.947 81.9125C143.88 78.8705 126.643 83.5735 114.198 96.0115C100.222 109.991 96.03 130.063 101.613 147.695C102.233 149.666 101.803 151.837 100.342 153.298L83.745 169.889C81.134 172.51 80.624 176.613 82.625 179.745C85.156 183.727 88.147 187.49 91.628 190.972C95.1 194.444 98.851 197.436 102.813 199.958C105.944 201.949 110.036 201.458 112.667 198.837L129.504 182.056C130.855 180.705 132.825 180.315 134.636 180.905C152.334 186.609 172.522 182.446 186.568 168.388C199.073 155.89 203.755 138.529 200.623 122.389C200.183 120.157 198.503 118.566 196.162 118.206C194.581 117.956 193.731 118.696 192.96 119.457C192.85 119.577 176.513 136.107 167.48 145.173Z" fill="#C88097"/>
</svg>
