<svg width="477" height="396" viewBox="0 0 477 396" fill="none" xmlns="http://www.w3.org/2000/svg">
<path fill-rule="evenodd" clip-rule="evenodd" d="M142.24 194.706C139.861 197.092 136.461 198.141 133.138 197.531L132.175 197.347C131.5 197.223 130.832 197.046 130.209 196.764C125.223 194.574 121.285 190.451 119.332 185.344C119.326 185.325 119.326 185.318 119.312 185.298C119.299 185.239 119.057 184.322 118.775 183.247C118.231 181.155 118.814 178.927 120.328 177.386C125.99 171.611 139.724 158.028 139.979 157.772C140.071 157.687 140.261 157.497 140.261 157.497C140.405 156.841 140.7 154.258 138.217 153.563C137.909 153.472 137.627 153.321 137.306 153.262C126.782 151.269 115.492 154.35 107.341 162.498C98.187 171.656 95.4415 184.807 99.0978 196.358C99.5041 197.649 99.2223 199.072 98.2656 200.029L87.3949 210.898C85.6847 212.615 85.3505 215.303 86.661 217.355C88.3188 219.964 90.2781 222.429 92.5583 224.71C94.8321 226.985 97.2893 228.945 99.8841 230.597C101.935 231.901 104.615 231.58 106.338 229.863L117.366 218.869C118.251 217.984 119.542 217.728 120.728 218.115C132.319 221.852 145.542 219.125 154.742 209.914C162.933 201.727 166 190.353 163.949 179.779C163.66 178.317 162.559 177.275 161.026 177.039C159.991 176.875 159.434 177.36 158.929 177.858C158.857 177.937 148.157 188.766 142.24 194.706Z" fill="#91002E"/>
<mask id="mask0_29_206" style="mask-type:luminance" maskUnits="userSpaceOnUse" x="15" y="82" width="225" height="225">
<path d="M15.6297 135.586L186.442 82.4285L239.565 253.257L68.7533 306.415L15.6297 135.586Z" fill="white"/>
</mask>
<g mask="url(#mask0_29_206)">
<path fill-rule="evenodd" clip-rule="evenodd" d="M217.152 190.664C208.388 188.134 201.027 181.386 198.114 172.021C195.206 162.669 197.44 152.928 203.225 145.878C204.466 144.374 204.551 142.289 203.431 140.7C200.473 136.456 197.145 132.442 193.454 128.704C192.082 127.315 190.036 127.011 188.317 127.966C180.332 132.382 170.349 132.825 161.676 128.251C152.99 123.703 147.698 115.228 146.798 106.149C146.613 104.205 145.197 102.673 143.276 102.337C138.113 101.422 132.913 100.961 127.751 100.922C125.798 100.917 124.132 102.155 123.591 104.033C121.067 112.796 114.316 120.175 104.961 123.072C95.5971 125.986 85.8641 123.751 78.8097 117.969C77.3055 116.728 75.2313 116.654 73.6322 117.764C69.3887 120.723 65.3809 124.05 61.6346 127.737C60.2518 129.108 59.9435 131.163 60.8961 132.875C65.3117 140.867 65.7529 150.852 61.1852 159.524C56.6301 168.214 48.1558 173.508 39.0736 174.397C37.1273 174.597 35.6126 176.002 35.2659 177.933C34.3441 183.099 33.8818 188.3 33.8589 193.471C33.8433 195.414 35.0893 197.084 36.9584 197.621C45.7264 200.142 53.0861 206.883 56.0024 216.261C58.9106 225.613 56.6746 235.348 50.8856 242.406C49.6377 243.913 49.5634 245.988 50.6883 247.589C53.6375 251.828 56.9806 255.845 60.6563 259.581C62.02 260.965 64.0809 261.271 65.793 260.318C73.7805 255.909 83.7614 255.46 92.4386 260.025C101.122 264.588 106.412 273.056 107.313 282.136C107.499 284.086 108.92 285.61 110.834 285.948C115.995 286.856 121.2 287.33 126.366 287.361C128.321 287.372 129.987 286.134 130.52 284.252C133.052 275.493 139.796 268.116 149.154 265.204C158.509 262.286 168.251 264.525 175.301 270.316C176.809 271.549 178.887 271.636 180.478 270.521C184.722 267.562 188.736 264.233 192.474 260.541C193.872 259.173 194.163 257.109 193.212 255.404C188.799 247.418 188.372 237.436 192.93 228.752C197.497 220.079 205.952 214.77 215.033 213.874C216.989 213.686 218.507 212.266 218.851 210.35C219.764 205.179 220.228 199.985 220.258 194.811C220.265 192.865 219.027 191.198 217.152 190.664ZM174.362 218.995C160.629 245.122 128.316 255.178 102.197 241.453C76.0777 227.729 66.0282 195.412 79.7634 169.292C93.4816 143.163 125.795 133.107 151.922 146.836C178.033 160.556 188.082 192.872 174.362 218.995Z" fill="#C88097"/>
</g>
<mask id="mask1_29_206" style="mask-type:luminance" maskUnits="userSpaceOnUse" x="0" y="0" width="477" height="323">
<path d="M0 0H477V322.371H0V0Z" fill="white"/>
</mask>
<g mask="url(#mask1_29_206)">
<path d="M456.193 254.818H20.8191V22.8987C20.8191 21.8675 21.6638 21.035 22.6948 21.035H454.33C455.349 21.035 456.193 21.8675 456.193 22.8987V254.818ZM286.225 299.746C283.989 301.995 280.883 303.399 277.467 303.399H199.545C192.701 303.399 187.148 297.82 187.148 290.949C187.148 287.507 188.527 284.401 190.775 282.152C193.011 279.891 196.117 278.512 199.545 278.512H277.467C284.312 278.512 289.864 284.078 289.864 290.949C289.864 294.378 288.473 297.497 286.225 299.746ZM454.33 0.136688H22.6948C10.1735 0.136688 0 10.3498 0 22.8987V298.404C0 310.953 10.1735 321.166 22.6948 321.166H454.33C466.827 321.166 477.012 310.953 477.012 298.404V22.8987C477.012 10.3498 466.827 0.136688 454.33 0.136688Z" fill="#91002E"/>
</g>
<path d="M283.616 290.949C283.616 292.602 282.97 294.155 281.815 295.323C280.647 296.478 279.107 297.137 277.467 297.137H199.545C196.154 297.137 193.396 294.353 193.396 290.949C193.396 289.297 194.03 287.744 195.21 286.563C196.365 285.408 197.905 284.774 199.545 284.774H277.467C280.858 284.774 283.616 287.545 283.616 290.949Z" fill="#C88097"/>
<mask id="mask2_29_206" style="mask-type:luminance" maskUnits="userSpaceOnUse" x="95" y="366" width="287" height="30">
<path d="M95.0646 366.901H381.265V396H95.0646V366.901Z" fill="white"/>
</mask>
<g mask="url(#mask2_29_206)">
<path d="M378.793 395.826H98.2322C103.797 379.45 119.3 367.622 137.498 367.622H339.515C357.725 367.622 373.215 379.45 378.793 395.826Z" fill="#C88097"/>
</g>
<path d="M291.901 360.055H185.111L195.62 328.72H281.405L291.901 360.055Z" fill="#C88097"/>
<mask id="mask3_29_206" style="mask-type:luminance" maskUnits="userSpaceOnUse" x="432" y="61" width="4" height="24">
<path d="M435.114 84.2564H432.191V61.4651H435.114V84.2564Z" fill="white"/>
</mask>
<g mask="url(#mask3_29_206)">
<path d="M432.399 61.7288V83.9071H433.687C434.474 83.9071 435.114 83.5236 435.114 83.0545V62.5814C435.114 62.1123 434.471 61.7288 433.687 61.7288H432.399Z" fill="#C88097"/>
<path fill-rule="evenodd" clip-rule="evenodd" d="M433.687 83.9071C434.474 83.9071 435.114 83.5236 435.114 83.0511V62.578C435.114 62.1089 434.471 61.7254 433.687 61.7254H432.399V83.9071H433.687ZM432.824 83.4825H433.687C434.015 83.4825 434.296 83.4004 434.474 83.2908C434.666 83.1778 434.686 83.0819 434.686 83.0545V62.5814C434.686 62.5574 434.666 62.4616 434.474 62.3451C434.293 62.2356 434.015 62.1568 433.687 62.1568H432.827V83.4825H432.824Z" fill="#C88097"/>
</g>
<mask id="mask4_29_206" style="mask-type:luminance" maskUnits="userSpaceOnUse" x="432" y="91" width="4" height="13">
<path d="M435.114 103.541H432.191V91.2691H435.114V103.541Z" fill="white"/>
</mask>
<g mask="url(#mask4_29_206)">
<path d="M432.4 92.0084V102.671H433.687C434.474 102.671 435.114 102.295 435.114 101.819V92.861C435.114 92.3919 434.471 92.0084 433.687 92.0084H432.4Z" fill="#C88097"/>
<path fill-rule="evenodd" clip-rule="evenodd" d="M433.687 102.675C434.474 102.675 435.114 102.295 435.114 101.822V92.8647C435.114 92.3922 434.471 92.0087 433.687 92.0087H432.399V102.672H433.687V102.675ZM432.824 102.247H433.687C434.015 102.247 434.296 102.165 434.474 102.059C434.666 101.946 434.686 101.85 434.686 101.822V92.8647C434.686 92.8373 434.666 92.7414 434.474 92.6284C434.293 92.5189 434.015 92.4367 433.687 92.4367H432.827V102.247H432.824Z" fill="#C88097"/>
</g>
<mask id="mask5_29_206" style="mask-type:luminance" maskUnits="userSpaceOnUse" x="298" y="38" width="4" height="34">
<path d="M301.609 71.9841H298.397V38.6738H301.609V71.9841Z" fill="white"/>
</mask>
<g mask="url(#mask5_29_206)">
<path d="M299.592 39.1224C298.935 39.1224 298.398 39.4991 298.398 39.975V71.111C298.398 71.5835 298.935 71.9671 299.592 71.9671H300.845C301.013 71.9671 301.143 71.8712 301.143 71.7513V39.3381C301.143 39.2183 301.01 39.1224 300.845 39.1224H299.592Z" fill="#C88097"/>
<path fill-rule="evenodd" clip-rule="evenodd" d="M299 39.7179C298.863 39.8138 298.829 39.9097 298.829 39.9747V71.1107C298.829 71.1723 298.863 71.2682 299 71.3675C299.137 71.4668 299.346 71.5387 299.596 71.5387H300.722V39.5501H299.596C299.342 39.5467 299.134 39.622 299 39.7179ZM298.398 39.9747C298.398 39.5022 298.935 39.1221 299.592 39.1221H300.845C301.013 39.1221 301.143 39.2145 301.143 39.3344V71.751C301.143 71.8709 301.01 71.9633 300.845 71.9633H299.592C298.935 71.9633 298.398 71.5798 298.398 71.1107V39.9747Z" fill="#C88097"/>
</g>
<mask id="mask6_29_206" style="mask-type:luminance" maskUnits="userSpaceOnUse" x="432" y="35" width="4" height="23">
<path d="M435.114 57.9588H432.191V35.1675H435.114V57.9588Z" fill="white"/>
</mask>
<g mask="url(#mask6_29_206)">
<path d="M432.4 35.2839V57.4623H433.687C434.474 57.4623 435.114 57.0788 435.114 56.6097V36.1366C435.114 35.664 434.471 35.2839 433.687 35.2839H432.4Z" fill="#C88097"/>
<path fill-rule="evenodd" clip-rule="evenodd" d="M433.687 57.4623C434.474 57.4623 435.114 57.0788 435.114 56.6097V36.1366C435.114 35.664 434.471 35.2839 433.687 35.2839H432.4V57.4623H433.687ZM432.824 57.0377H433.687C434.015 57.0377 434.296 56.9555 434.474 56.8459C434.666 56.7329 434.686 56.6336 434.686 56.6097V36.1366C434.686 36.1092 434.666 36.0133 434.474 35.8969C434.293 35.7873 434.015 35.7085 433.687 35.7085H432.827V57.0377H432.824Z" fill="#C88097"/>
</g>
<path d="M346.821 140.635C346.821 139.046 347.468 137.601 348.509 136.564C349.557 135.523 350.998 134.879 352.59 134.879H380.381C383.572 134.879 386.156 137.454 386.156 140.639C386.156 142.228 385.509 143.666 384.465 144.707C383.421 145.751 381.98 146.398 380.384 146.398H352.597C349.403 146.391 346.821 143.809 346.821 140.635Z" fill="#C88097"/>
<path fill-rule="evenodd" clip-rule="evenodd" d="M348.81 136.862C347.849 137.824 347.249 139.163 347.249 140.635C347.249 143.577 349.639 145.967 352.593 145.967H380.381C381.86 145.967 383.192 145.374 384.164 144.402C385.129 143.44 385.728 142.108 385.728 140.635C385.728 137.687 383.335 135.304 380.381 135.304H352.593C351.118 135.304 349.783 135.896 348.81 136.862ZM348.509 136.56C347.465 137.601 346.822 139.043 346.822 140.632C346.822 143.809 349.403 146.391 352.593 146.391H380.381C381.976 146.391 383.418 145.748 384.465 144.703C385.509 143.662 386.153 142.224 386.153 140.632C386.153 137.451 383.572 134.872 380.381 134.872H352.59C350.998 134.876 349.557 135.523 348.509 136.56Z" fill="#C88097"/>
<mask id="mask7_29_206" style="mask-type:luminance" maskUnits="userSpaceOnUse" x="299" y="12" width="135" height="144">
<path d="M433.943 155.51L299.856 155.51L299.856 12.1879L433.943 12.1879L433.943 155.51Z" fill="white"/>
</mask>
<g mask="url(#mask7_29_206)">
<path d="M323.094 155.349L410.74 155.349C423.372 155.349 433.611 145.128 433.611 132.53L433.611 -95.6563C433.611 -108.261 423.372 -118.475 410.74 -118.475L323.094 -118.475C310.462 -118.475 300.222 -108.261 300.222 -95.6563L300.222 132.53C300.222 145.128 310.462 155.349 323.094 155.349ZM306.206 -95.6597C306.206 -105.199 313.957 -112.935 323.522 -112.935L410.312 -112.935C419.873 -112.935 427.627 -105.199 427.627 -95.6597L427.627 132.53C427.627 142.067 419.873 149.805 410.312 149.805L323.522 149.805C313.957 149.805 306.206 142.067 306.206 132.53L306.206 -95.6597Z" fill="#91002E"/>
<path fill-rule="evenodd" clip-rule="evenodd" d="M323.094 154.921L410.74 154.921C423.136 154.921 433.183 144.892 433.183 132.53L433.183 -95.6597C433.183 -108.028 423.136 -118.054 410.74 -118.054L323.094 -118.054C310.694 -118.054 300.647 -108.028 300.647 -95.6597L300.647 132.53C300.647 144.892 310.694 154.921 323.094 154.921ZM305.778 -95.6597C305.778 -105.436 313.721 -113.359 323.522 -113.359L410.312 -113.359C420.113 -113.359 428.055 -105.436 428.055 -95.6597L428.055 132.53C428.055 142.303 420.113 150.233 410.312 150.233L323.522 150.233C313.721 150.233 305.778 142.303 305.778 132.53L305.778 -95.6597ZM410.74 155.349L323.094 155.349C310.462 155.349 300.222 145.128 300.222 132.53L300.222 -95.6563C300.222 -108.261 310.462 -118.475 323.094 -118.475L410.74 -118.475C423.372 -118.475 433.611 -108.261 433.611 -95.6563L433.611 132.53C433.611 145.128 423.372 155.349 410.74 155.349ZM323.522 -112.935C313.957 -112.935 306.206 -105.199 306.206 -95.6597L306.206 132.53C306.206 142.067 313.957 149.805 323.522 149.805L410.312 149.805C419.873 149.805 427.627 142.067 427.627 132.53L427.627 -95.6563C427.627 -105.199 419.873 -112.931 410.312 -112.931L323.522 -112.931V-112.935Z" fill="#91002E"/>
</g>
</svg>
