<svg width="114" height="150" viewBox="0 0 114 150" fill="none" xmlns="http://www.w3.org/2000/svg">
<path fill-rule="evenodd" clip-rule="evenodd" d="M2.50781 18.957H112.004V146.945H2.50781V18.957Z" fill="white"/>
<path fill-rule="evenodd" clip-rule="evenodd" d="M27.3008 12.1562H86.8516V25.5781H27.3008V12.1562Z" fill="white"/>
<path fill-rule="evenodd" clip-rule="evenodd" d="M45.7031 66.0156H24.5508V43.707H45.7031V66.0156ZM45.7188 75.3554H24.5664V97.664H45.7188V75.3554ZM24.5781 107.008V129.316H45.7344V107.008H24.5781Z" fill="white"/>
<mask id="mask0_33_313" style="mask-type:luminance" maskUnits="userSpaceOnUse" x="0" y="0" width="114" height="150">
<path d="M0 0H114V150H0V0Z" fill="white"/>
</mask>
<g mask="url(#mask0_33_313)">
<path d="M111.586 16.8672H89.5703V12.8047C89.5703 11.4687 88.4844 10.3867 87.1524 10.3867H72.418C71.2695 7.60155 69.3906 5.18748 67.0156 3.39452C64.2227 1.28123 60.75 0.0273285 57 0.0273285C53.25 0.0273285 49.7734 1.28123 46.9805 3.39452C44.6133 5.18748 42.7305 7.60155 41.5859 10.3867H26.8516C25.5156 10.3867 24.4336 11.4687 24.4336 12.8047V16.8633H2.41797C1.08203 16.8672 0 17.9531 0 19.2851V147.559C0 148.895 1.08203 149.977 2.41797 149.977H111.586C112.918 149.977 114.004 148.895 114.004 147.559V19.2851C114.004 17.9531 112.918 16.8672 111.586 16.8672ZM49.8906 7.24998C51.8711 5.75389 54.3359 4.86327 57.0039 4.86327C59.668 4.86327 62.1328 5.75389 64.1094 7.24998C65.2539 8.11327 66.2344 9.17967 67.0039 10.3906H46.9961C47.7656 9.17577 48.7461 8.11327 49.8906 7.24998ZM29.2656 15.2226H84.7344V23.3437H29.2656V15.2226ZM109.168 145.141H4.83594V21.7031H24.4336V25.7656C24.4336 27.0976 25.5156 28.1836 26.8516 28.1836H87.1524C88.4883 28.1836 89.5703 27.0976 89.5703 25.7656V21.7031H109.172V145.141H109.168ZM28.293 58.4883C27.3438 57.5664 27.3164 56.043 28.2383 55.0859C29.1602 54.1367 30.6836 54.1094 31.6406 55.0312L32.2266 55.6015L38.418 49.207C39.3477 48.2539 40.8711 48.2305 41.8242 49.1601C42.7773 50.0898 42.7969 51.6172 41.8672 52.5664L34.0117 60.6875C33.082 61.6406 31.5547 61.664 30.6055 60.7344L28.293 58.4883ZM46.1523 41.4258H23.957C22.6211 41.4258 21.5391 42.5117 21.5391 43.8437V66.043C21.5391 67.375 22.6211 68.4609 23.957 68.4609H46.1523C47.4883 68.4609 48.5703 67.375 48.5703 66.043V43.8437C48.5703 42.5117 47.4883 41.4258 46.1523 41.4258ZM43.7344 63.6289H26.375V46.2656H43.7344V63.6289ZM56.168 41.4258H90.0469C91.3828 41.4258 92.4649 42.5117 92.4649 43.8437C92.4649 45.1797 91.3828 46.2617 90.0469 46.2617H56.168C54.832 46.2617 53.75 45.1797 53.75 43.8437C53.75 42.5117 54.8281 41.4258 56.168 41.4258ZM53.75 54.9453C53.75 53.6094 54.832 52.5273 56.168 52.5273H82.5352C83.8711 52.5273 84.9531 53.6094 84.9531 54.9453C84.9531 56.2812 83.8711 57.3633 82.5352 57.3633H56.168C54.8281 57.3633 53.75 56.2812 53.75 54.9453ZM28.293 120.562C27.3438 119.641 27.3164 118.121 28.2383 117.164C29.1602 116.211 30.6836 116.184 31.6406 117.105L32.2266 117.676L38.418 111.281C39.3477 110.328 40.8711 110.309 41.8242 111.238C42.7773 112.168 42.7969 113.691 41.8672 114.645L34.0117 122.766C33.082 123.715 31.5547 123.738 30.6055 122.809L28.293 120.562ZM46.1523 103.504H23.957C22.6211 103.504 21.5391 104.586 21.5391 105.922V128.117C21.5391 129.453 22.6211 130.535 23.957 130.535H46.1523C47.4883 130.535 48.5703 129.453 48.5703 128.117V105.922C48.5703 104.586 47.4883 103.504 46.1523 103.504ZM43.7344 125.699H26.375V108.34H43.7344V125.699ZM92.4609 105.922C92.4609 107.254 91.3789 108.34 90.043 108.34H56.1641C54.8281 108.34 53.7461 107.254 53.7461 105.922C53.7461 104.586 54.8281 103.504 56.1641 103.504H90.043C91.3828 103.504 92.4609 104.586 92.4609 105.922ZM84.9492 117.02C84.9492 118.355 83.8672 119.437 82.5313 119.437H56.1641C54.8281 119.437 53.7461 118.355 53.7461 117.02C53.7461 115.687 54.8281 114.602 56.1641 114.602H82.5313C83.8711 114.602 84.9492 115.687 84.9492 117.02ZM28.293 89.5234C27.3438 88.6015 27.3164 87.0781 28.2383 86.125C29.1602 85.1719 30.6836 85.1445 31.6406 86.0664L32.2266 86.6367L38.418 80.2422C39.3477 79.289 40.8711 79.2656 41.8242 80.1953C42.7773 81.125 42.7969 82.6523 41.8672 83.6055L34.0117 91.7226C33.082 92.6758 31.5547 92.6992 30.6055 91.7695L28.293 89.5234ZM46.1523 72.4648H23.957C22.6211 72.4648 21.5391 73.5508 21.5391 74.8828V97.082C21.5391 98.414 22.6211 99.5 23.957 99.5H46.1523C47.4883 99.5 48.5703 98.414 48.5703 97.082V74.8828C48.5703 73.5508 47.4883 72.4648 46.1523 72.4648ZM43.7344 94.664H26.375V77.3008H43.7344V94.664ZM92.4609 74.8828C92.4609 76.2187 91.3789 77.3008 90.043 77.3008H56.1641C54.8281 77.3008 53.7461 76.2187 53.7461 74.8828C53.7461 73.5508 54.8281 72.4648 56.1641 72.4648H90.043C91.3828 72.4648 92.4609 73.5508 92.4609 74.8828ZM53.75 85.9805C53.75 84.6445 54.832 83.5625 56.168 83.5625H82.5352C83.8711 83.5625 84.9531 84.6445 84.9531 85.9805C84.9531 87.3164 83.8711 88.3984 82.5352 88.3984H56.168C54.8281 88.3984 53.75 87.3203 53.75 85.9805Z" fill="#C88097"/>
</g>
</svg>
