<svg width="58" height="64" viewBox="0 0 58 64" fill="none" xmlns="http://www.w3.org/2000/svg">
<mask id="mask0_175_284" style="mask-type:luminance" maskUnits="userSpaceOnUse" x="0" y="0" width="28" height="64">
<path d="M0 0H27.6083V64H0V0Z" fill="white"/>
</mask>
<g mask="url(#mask0_175_284)">
<path d="M27.49 59.42C27.49 61.9467 25.4417 63.99 22.9067 63.99H13.7417C6.15166 63.99 -0.00500488 57.8483 -0.00500488 50.28V13.7217C-0.00500488 6.15332 6.15166 0.0116577 13.7417 0.0116577H22.9067C25.4417 0.0116577 27.49 2.05499 27.49 4.58166C27.49 7.10999 25.4417 9.15166 22.9067 9.15166H13.7417C11.2067 9.15166 9.16 11.195 9.16 13.7217V50.28C9.16 52.8067 11.2067 54.85 13.7417 54.85H22.9067C25.4417 54.85 27.49 56.8917 27.49 59.42Z" fill="#340F1B"/>
</g>
<mask id="mask1_175_284" style="mask-type:luminance" maskUnits="userSpaceOnUse" x="19" y="12" width="39" height="40">
<path d="M19.9283 12.4017H57.6V51.655H19.9283V12.4017Z" fill="white"/>
</mask>
<g mask="url(#mask1_175_284)">
<path d="M41.3933 13.9216L56.2267 28.7116C57.0967 29.5799 57.5917 30.7716 57.5917 31.9999C57.5917 33.2299 57.0967 34.4216 56.2267 35.2883L41.3933 50.0799C40.6217 50.8499 39.5817 51.2716 38.495 51.2716C36.2367 51.2716 34.4017 49.4416 34.4017 47.1883V39.7099H24.135C21.9967 39.7099 20.27 37.9866 20.27 35.8549V28.1466C20.27 26.0149 21.9967 24.2916 24.135 24.2916H34.4017V16.8116C34.4017 14.5599 36.2367 12.7299 38.495 12.7299C39.5817 12.7299 40.6217 13.1633 41.3933 13.9216Z" fill="#C88097"/>
</g>
</svg>
