<svg width="86" height="64" viewBox="0 0 86 64" fill="none" xmlns="http://www.w3.org/2000/svg">
<path d="M68.8458 20.3581C68.6832 18.3262 67.9212 16.7415 66.5598 15.6037C65.2188 14.4659 63.1772 13.897 60.4343 13.897C58.6871 13.897 57.2546 14.1106 56.1372 14.537C55.04 14.9433 54.2274 15.5022 53.6991 16.2132C53.1707 16.9246 52.8965 17.7372 52.876 18.6514C52.8355 19.4033 52.9676 20.0839 53.2723 20.6933C53.5975 21.2827 54.1054 21.8211 54.7963 22.3085C55.4869 22.7758 56.3709 23.2026 57.4477 23.5884C58.5245 23.9746 59.8044 24.3199 61.2875 24.6247L66.4076 25.7219C69.8615 26.4534 72.8177 27.4185 75.276 28.617C77.7346 29.8158 79.746 31.2278 81.3102 32.8534C82.8748 34.4585 84.0226 36.2668 84.7541 38.2782C85.5061 40.2896 85.8919 42.4838 85.9124 44.8609C85.8919 48.9649 84.8661 52.4393 82.8342 55.2838C80.8023 58.1283 77.8972 60.2919 74.118 61.775C70.3594 63.2584 65.8387 64 60.556 64C55.1315 64 50.3973 63.1974 46.3543 61.5923C42.3315 59.9872 39.2024 57.5185 36.9677 54.1866C34.7531 50.8342 33.6354 46.5472 33.6153 41.3255H49.7067C49.8083 43.2354 50.2857 44.8405 51.1388 46.1409C51.9924 47.4413 53.1912 48.4265 54.7353 49.097C56.2995 49.7675 58.1587 50.1027 60.3123 50.1027C62.1206 50.1027 63.6342 49.8794 64.8534 49.4322C66.0723 48.9854 66.9966 48.3655 67.6265 47.5733C68.2564 46.7808 68.5816 45.8767 68.6017 44.8609C68.5816 43.9058 68.2665 43.0731 67.657 42.3617C67.068 41.6306 66.0928 40.9802 64.7314 40.4113C63.37 39.8223 61.5312 39.2735 59.2151 38.7656L52.9981 37.4247C47.4717 36.2259 43.1136 34.2249 39.9238 31.4209C36.7541 28.5969 35.1795 24.7467 35.2 19.8703C35.1795 15.9085 36.2362 12.4444 38.3696 9.47811C40.5232 6.49144 43.4998 4.16509 47.299 2.49906C51.1187 0.833033 55.4969 0 60.4343 0C65.4729 0 69.831 0.843189 73.5086 2.52954C77.1858 4.21588 80.0202 6.59302 82.0112 9.66095C84.0226 12.7086 85.0387 16.2742 85.0589 20.3581H68.8458Z" fill="#C88097"/>
<path d="M0 63.2685V0.853333H26.9409C31.5734 0.853333 35.6267 1.69649 39.1008 3.38284C42.5752 5.06918 45.2775 7.49714 47.2075 10.6666C49.1378 13.836 50.103 17.6356 50.103 22.0648C50.103 26.5345 49.1073 30.3036 47.116 33.3713C45.1455 36.4394 42.372 38.7556 38.7961 40.3198C35.2405 41.8844 31.0856 42.6665 26.3314 42.6665H10.24V29.501H22.9181C24.9092 29.501 26.6057 29.257 28.0076 28.7695C29.4298 28.2616 30.5167 27.4591 31.2686 26.3618C32.0407 25.2646 32.4265 23.8325 32.4265 22.0648C32.4265 20.2769 32.0407 18.824 31.2686 17.7067C30.5167 16.5689 29.4298 15.7358 28.0076 15.2075C26.6057 14.659 24.9092 14.3848 22.9181 14.3848H16.9448V63.2685H0ZM36.5714 34.6208L52.1751 63.2685H33.7675L18.5295 34.6208H36.5714Z" fill="#91002E"/>
</svg>
