<svg width="153" height="150" viewBox="0 0 153 150" fill="none" xmlns="http://www.w3.org/2000/svg">
<path d="M22.4489 111.755C13.7157 111.755 6.66052 118.83 6.66052 127.583C6.66052 136.336 13.7157 143.411 22.4489 143.411C31.1782 143.411 38.2374 136.336 38.2374 127.583C38.2374 118.83 31.1782 111.755 22.4489 111.755ZM29.8788 132.984C27.834 132.426 25.9765 133.542 25.4185 135.591C25.4185 135.778 25.2351 136.149 25.2351 136.336C23.9357 134.845 21.7036 134.475 20.0334 135.778C19.8461 135.961 19.6628 136.149 19.4754 136.336C19.2921 134.287 17.618 132.797 15.5771 132.797C15.3898 132.797 15.0191 132.797 14.8318 132.984C15.9478 131.306 15.3898 129.074 13.7157 127.954C13.7157 127.77 13.5323 127.77 13.1616 127.583C15.0191 126.838 15.9478 124.789 15.2025 122.927C15.2025 122.557 15.0191 122.369 15.0191 122.182C17.0599 122.74 18.9174 121.624 19.4754 119.575C19.4754 119.388 19.6628 119.017 19.6628 118.83C20.9622 120.321 23.1903 120.691 24.8644 119.388C25.0478 119.204 25.2351 119.017 25.4185 118.83C25.6058 120.879 27.276 122.369 29.3208 122.369C29.5081 122.369 29.8788 122.369 30.0621 122.182C28.9501 123.86 29.5081 126.092 31.1782 127.212C31.3656 127.396 31.5489 127.396 31.9196 127.583C30.0621 128.328 29.1334 130.377 29.8788 132.239C29.6915 132.609 29.8788 132.797 29.8788 132.984Z" fill="#C88097"/>
<mask id="mask0_33_311" style="mask-type:luminance" maskUnits="userSpaceOnUse" x="0" y="0" width="153" height="150">
<path d="M0 0H152.846V150H0V0Z" fill="white"/>
</mask>
<g mask="url(#mask0_33_311)">
<path d="M152.846 27.0209L128.328 41.7331C123.868 40.2423 120.153 37.0775 117.925 32.9799C115.326 29.0697 114.21 24.414 114.955 19.7584L139.473 4.67551C128.328 -0.725476 115.326 -0.354779 104.735 5.79159C89.505 15.1028 96.3768 37.6355 92.2912 41.7331L29.1335 105.05C28.7628 105.421 28.0214 105.608 27.4634 105.608C23.3777 104.676 19.2921 105.05 15.3899 106.354C6.66059 109.518 0.713525 117.526 0.34283 126.838C-0.215206 139.314 9.44678 149.558 21.891 149.928C22.2617 149.928 22.6324 149.928 23.0071 149.928C32.2944 149.558 40.2822 143.599 43.4391 134.845C44.9259 130.935 45.1092 126.838 44.1805 122.74C43.9972 122.182 44.1805 121.437 44.7386 121.066L108.08 57.5614C109.196 56.6326 110.866 56.4453 112.169 57.0033C116.996 59.2395 127.4 62.4043 135.758 57.378C146.162 50.4863 152.475 39.1263 152.846 27.0209ZM22.449 141.55C14.8318 141.55 8.51805 135.22 8.51805 127.583C8.51805 119.95 14.8318 113.616 22.449 113.616C30.0622 113.616 36.38 119.95 36.38 127.583C36.38 135.22 30.0622 141.55 22.449 141.55Z" fill="white"/>
</g>
</svg>
