<svg width="63" height="64" viewBox="0 0 63 64" fill="none" xmlns="http://www.w3.org/2000/svg">
<path d="M11.0598 16.9349C13.4735 19.354 20.0754 11.3286 18.428 8.53713C16.7682 5.73488 11.1762 0.640685 10.8055 0.640685C10.4223 0.640685 19.9482 -2.16157 25.2859 3.95504C30.6219 10.0735 28.081 19.8661 28.081 19.8661L62.8756 53.3481C63.898 57.291 56.6587 63.78 55.1259 62.2563C53.7203 60.8489 21.2249 26.8673 20.5481 26.6363C19.7172 26.3552 18.8112 26.7008 17.9428 26.8154C13.1798 27.4295 8.07311 25.8431 4.81604 22.2977C1.56077 18.7524 0.436287 13.2481 2.4292 8.85765C2.44174 8.85765 8.64788 14.5159 11.0598 16.9349Z" fill="#340F1B"/>
<path d="M1.72731 51.2245C4.08908 48.8556 16.3975 35.5963 19.9357 32.051C23.4721 28.5057 29.7678 31.256 29.7678 31.256L51.1795 11.1872L52.5583 8.15395L57.8584 4.44208L60.3222 7.1942L57.2711 12.48L53.3766 13.9017L33.5459 34.2266L34.2496 37.3619C34.785 39.7684 34.0186 42.2895 32.2316 43.9798C28.7973 47.2172 22.8597 52.888 17.4325 58.3277C9.18328 66.5966 5.91547 64.2152 3.01653 61.2195C-0.90305 57.137 -0.636253 53.5917 1.72731 51.2245Z" fill="#C88097"/>
<path d="M23.8678 32.5631C24.0343 32.4467 24.2259 32.3196 24.4301 32.3446C24.6217 32.3697 24.7613 32.5111 24.8634 32.6777C25.388 33.5855 24.6091 34.6742 23.8804 35.4298C22.6162 36.7351 21.3521 38.0405 20.1004 39.3458C17.0618 42.4811 14.0357 45.6182 10.9201 48.6765C9.98725 49.5861 3.36032 56.8308 2.30208 56.1522C0.806949 55.1924 6.005 50.3793 6.50278 49.8923C9.24774 47.1276 11.7886 44.1714 14.4315 41.3172C17.3304 38.155 20.3816 35.0842 23.8678 32.5631ZM19.7441 53.144C22.3995 50.3023 24.9529 47.3586 27.7104 44.6065C28.1956 44.1195 33.4313 39.3333 31.938 38.361C30.8779 37.6698 24.2116 44.8876 23.2805 45.7972C20.1524 48.8305 17.0994 51.9532 14.0483 55.076C12.7841 56.3688 11.5075 57.6741 10.2433 58.9669C9.51633 59.7226 8.72489 60.8112 9.24774 61.7191C9.33727 61.8856 9.48947 62.027 9.68106 62.0521C9.88518 62.0772 10.0768 61.95 10.2433 61.8337C13.7421 59.3394 16.8058 56.2918 19.7441 53.144ZM5.16164 59.633C5.49289 59.7745 5.87608 59.685 6.13213 59.4289L8.83949 56.8165C10.1412 55.5505 11.4573 54.2953 12.7591 53.0294C13.7421 52.0822 14.7126 51.1475 15.6705 50.1734C16.5264 49.3175 17.368 48.4455 18.2114 47.5627C20.421 45.2726 23.9949 41.4587 26.2045 39.1667C27.0604 38.284 27.9665 37.1953 28.0936 36.044C28.1455 35.5838 27.6477 35.2633 27.252 35.5068C26.7399 35.813 26.2815 36.1711 25.8088 36.5435C22.7433 38.9501 14.1127 47.7418 13.2694 48.664C12.3633 49.6631 2.72287 58.5712 5.16164 59.633Z" fill="#340F1B"/>
</svg>
