<svg width="180" height="156" viewBox="0 0 180 156" fill="none" xmlns="http://www.w3.org/2000/svg">
<path fill-rule="evenodd" clip-rule="evenodd" d="M93.0175 5.8309C94.4387 4.41536 96.4435 3.80602 98.4012 3.80602C100.359 3.80602 102.246 4.41536 103.667 5.8309L119.696 21.894C120.939 23.1267 121.193 25.0344 120.299 26.5343C118.562 29.4076 119.009 32.9886 121.372 35.3416C123.692 37.6477 127.428 38.079 130.228 36.4103C131.739 35.5057 133.772 35.7729 135.015 37.0056L151.043 52.9515C152.465 54.3483 153.199 56.1951 153.199 58.1871C153.199 60.1979 152.465 62.115 151.043 63.5446L137.048 77.4657C136.992 77.3871 136.952 77.3031 136.912 77.219C136.854 77.0974 136.796 76.9757 136.69 76.8704L133.937 74.133C132.44 72.6472 130.05 72.6472 128.553 74.133C127.057 75.6189 127.057 78 128.553 79.4859L131.184 82.2232C131.292 82.3311 131.418 82.3908 131.543 82.4503C131.624 82.489 131.705 82.5277 131.781 82.5794L60.2349 153.858C58.8137 155.273 56.9877 156 54.9688 156C52.9499 156 51.0063 155.156 49.5851 153.741L33.5514 137.795C32.3137 136.562 32.0596 134.659 32.9538 133.154C34.6903 130.286 34.2432 126.7 31.8761 124.347C29.5607 122.046 25.8193 121.596 23.0239 123.279C21.5133 124.188 19.5979 123.916 18.3602 122.683L2.20421 106.737C-0.741793 103.822 -0.727675 99.0784 2.20421 96.1489L73.7555 24.9876C73.7981 25.0552 73.8381 25.1251 73.8782 25.1952C73.9798 25.3729 74.0823 25.5521 74.2308 25.7L76.9839 28.4374C77.7321 29.1826 78.631 29.5107 79.6193 29.5107C80.6028 29.5107 81.6194 29.1826 82.3676 28.4374C83.8642 26.9515 83.8642 24.5704 82.3676 23.0846L79.6193 20.3472C79.4658 20.1977 79.2826 20.0926 79.102 19.9889C79.0335 19.9495 78.9653 19.9104 78.8992 19.8691L93.0175 5.8309ZM90.5044 31.0575C89.7562 30.3122 88.7255 29.9841 87.7514 29.9841C86.7819 29.9841 85.7466 30.3122 85.003 31.0575C83.5065 32.5434 83.5065 35.0416 85.003 36.5322L87.7514 39.1476C88.4996 39.8929 89.5162 40.3382 90.5044 40.3382C91.4927 40.3382 92.3869 39.8929 93.1351 39.1476C94.6317 37.6618 94.6317 35.2807 93.1351 33.7948L90.5044 31.0575ZM101.272 41.885C100.524 41.1397 99.6107 40.8163 98.6413 40.8163C97.6671 40.8163 96.6365 41.1397 95.8882 41.885C94.3917 43.3708 94.3917 45.7519 95.8882 47.2378L98.6413 49.9751C99.3895 50.7204 100.284 51.0485 101.272 51.0485C102.26 51.0485 103.277 50.7204 104.025 49.9751C105.522 48.4893 105.522 46.1082 104.025 44.6223L101.272 41.885ZM112.162 52.5953C111.414 51.85 110.383 51.5219 109.409 51.5219C108.435 51.5219 107.404 51.85 106.656 52.5953C105.159 54.0811 105.159 56.5794 106.656 58.07L109.409 60.6854C110.157 61.4307 111.174 61.876 112.162 61.876C113.15 61.876 114.044 61.4307 114.793 60.6854C116.289 59.1996 116.289 56.8185 114.793 55.3326L112.162 52.5953ZM122.929 63.4228C122.181 62.6775 121.268 62.3541 120.299 62.3541C119.324 62.3541 118.294 62.6775 117.546 63.4228C116.049 64.9086 116.049 67.2897 117.546 68.7802L120.299 71.5129C121.042 72.2582 121.941 72.5863 122.929 72.5863C123.918 72.5863 124.934 72.2582 125.682 71.5129C127.174 70.027 127.174 67.6459 125.682 66.1601L122.929 63.4228Z" fill="white"/>
<path d="M125.085 0C123.122 0 121.24 0.72652 119.819 2.14206L115.273 6.66054L125.085 16.4193C128.52 19.841 129.48 24.9735 127.475 29.2717C128.986 28.5733 130.586 28.3202 132.262 28.3202C135.344 28.3202 138.243 29.4967 140.398 31.6528L156.432 47.5987C159.303 50.4392 160.842 54.1561 160.856 58.1871C160.87 62.2322 159.317 66.0242 156.432 68.8974L142.431 82.8185L135.97 89.3665L75.6709 149.218L76.3862 149.935C77.8075 151.346 79.7511 152.194 81.77 152.194C83.7889 152.194 85.6149 151.467 87.0361 150.052L177.845 59.7339C179.266 58.3231 180 56.5091 180 54.4983C180 52.4922 179.266 50.5563 177.845 49.1455L161.693 33.1996C160.451 31.9621 158.521 31.709 157.03 32.6043C154.23 34.2683 150.493 33.823 148.173 31.5309C145.81 29.1826 145.363 25.5969 147.095 22.7283C147.994 21.2237 147.74 19.3207 146.497 18.088L130.469 2.14206C129.047 0.72652 127.042 0 125.085 0Z" fill="white"/>
</svg>
