<svg width="173" height="150" viewBox="0 0 173 150" fill="none" xmlns="http://www.w3.org/2000/svg">
<path fill-rule="evenodd" clip-rule="evenodd" d="M89.4001 5.60663C90.7661 4.24554 92.6929 3.65964 94.5745 3.65964C96.4561 3.65964 98.2699 4.24554 99.6358 5.60663L115.041 21.0519C116.235 22.2372 116.48 24.0716 115.62 25.5138C113.951 28.2765 114.381 31.7198 116.652 33.9823C118.882 36.1997 122.473 36.6144 125.164 35.0099C126.616 34.1401 128.57 34.397 129.764 35.5823L145.17 50.9149C146.536 52.258 147.241 54.0337 147.241 55.9492C147.241 57.8826 146.536 59.726 145.17 61.1006L131.718 74.4862C131.664 74.4107 131.626 74.3299 131.587 74.2491C131.532 74.1321 131.476 74.0151 131.374 73.9138L128.728 71.2818C127.29 69.8531 124.992 69.8531 123.554 71.2818C122.115 72.7105 122.115 75 123.554 76.4287L126.082 79.0608C126.186 79.1645 126.307 79.2219 126.427 79.2791C126.505 79.3164 126.584 79.3535 126.657 79.4033L57.8925 147.94C56.5265 149.301 54.7715 150 52.8311 150C50.8907 150 49.0227 149.189 47.6567 147.828L32.2467 132.495C31.0571 131.31 30.8128 129.48 31.6722 128.033C33.3412 125.275 32.9115 121.827 30.6364 119.565C28.4111 117.352 24.8153 116.919 22.1285 118.537C20.6766 119.411 18.8358 119.15 17.6462 117.965L2.1185 102.632C-0.712946 99.8287 -0.699376 95.2677 2.1185 92.4509L70.8872 24.0265C70.9282 24.0915 70.9666 24.1587 71.0051 24.2261C71.1028 24.397 71.2013 24.5694 71.3441 24.7116L73.9901 27.3436C74.7092 28.0602 75.5731 28.3757 76.523 28.3757C77.4683 28.3757 78.4453 28.0602 79.1644 27.3436C80.6028 25.9149 80.6028 23.6254 79.1644 22.1967L76.523 19.5646C76.3754 19.4209 76.1994 19.3198 76.0258 19.2201C75.9599 19.1822 75.8944 19.1446 75.8309 19.1049L89.4001 5.60663ZM86.9848 29.863C86.2657 29.1464 85.2751 28.8309 84.3388 28.8309C83.4071 28.8309 82.412 29.1464 81.6974 29.863C80.259 31.2917 80.259 33.6939 81.6974 35.1271L84.3388 37.642C85.058 38.3586 86.035 38.7867 86.9848 38.7867C87.9347 38.7867 88.7941 38.3586 89.5132 37.642C90.9516 36.2133 90.9516 33.9237 89.5132 32.495L86.9848 29.863ZM97.3336 40.274C96.6144 39.5574 95.737 39.2464 94.8052 39.2464C93.8689 39.2464 92.8784 39.5574 92.1592 40.274C90.7209 41.7027 90.7209 43.9922 92.1592 45.4209L94.8052 48.053C95.5244 48.7696 96.3838 49.0851 97.3336 49.0851C98.2834 49.0851 99.2604 48.7696 99.9796 48.053C101.418 46.6243 101.418 44.3348 99.9796 42.9061L97.3336 40.274ZM107.8 50.5724C107.081 49.8558 106.09 49.5403 105.154 49.5403C104.218 49.5403 103.227 49.8558 102.508 50.5724C101.07 52.0011 101.07 54.4033 102.508 55.8365L105.154 58.3514C105.873 59.068 106.85 59.4961 107.8 59.4961C108.75 59.4961 109.609 59.068 110.328 58.3514C111.767 56.9227 111.767 54.6331 110.328 53.2044L107.8 50.5724ZM118.149 60.9834C117.43 60.2668 116.552 59.9558 115.62 59.9558C114.684 59.9558 113.694 60.2668 112.974 60.9834C111.536 62.4121 111.536 64.7016 112.974 66.1348L115.62 68.7624C116.335 69.479 117.199 69.7945 118.149 69.7945C119.099 69.7945 120.076 69.479 120.795 68.7624C122.229 67.3337 122.229 65.0442 120.795 63.6155L118.149 60.9834Z" fill="white"/>
<path d="M120.22 0C118.334 0 116.525 0.698576 115.159 2.05967L110.79 6.40436L120.22 15.7878C123.522 19.0779 124.445 24.013 122.518 28.1458C123.97 27.4743 125.508 27.2309 127.118 27.2309C130.081 27.2309 132.867 28.3622 134.938 30.4354L150.349 45.768C153.108 48.4992 154.587 52.0732 154.6 55.9492C154.614 59.8386 153.121 63.4848 150.349 66.2475L136.892 79.6331L130.682 85.9293L72.7281 143.478L73.4157 144.168C74.7816 145.525 76.6497 146.34 78.59 146.34C80.5304 146.34 82.2854 145.642 83.6514 144.281L170.928 57.4365C172.294 56.0799 173 54.3357 173 52.4022C173 50.4732 172.294 48.6119 170.928 47.2553L155.405 31.9227C154.211 30.7328 152.357 30.4895 150.923 31.3503C148.232 32.9502 144.64 32.5221 142.411 30.3182C140.14 28.0602 139.71 24.6124 141.375 21.8542C142.239 20.4074 141.994 18.5776 140.8 17.3923L125.395 2.05967C124.029 0.698576 122.102 0 120.22 0Z" fill="#C88097"/>
</svg>
