<svg width="134" height="150" viewBox="0 0 134 150" fill="none" xmlns="http://www.w3.org/2000/svg">
<mask id="mask0_106_327" style="mask-type:luminance" maskUnits="userSpaceOnUse" x="0" y="0" width="76" height="130">
<path d="M0 0H75.6328V129.094H0V0Z" fill="white"/>
</mask>
<g mask="url(#mask0_106_327)">
<path d="M50.5781 0C52.4766 0.433594 54.418 0.75 56.3164 1.26172C64.3125 3.55859 70.6484 8.14453 75.5586 14.9844C60.4336 19.7695 50.1406 29.4609 45.8672 44.7656C41.5117 60.4258 46.3789 73.6328 57.7422 84.8633C41.8672 95.1485 31.5352 108.594 32.4844 128.602C31.9297 128.645 31.4961 128.723 31.0586 128.723C25.9531 128.723 20.8477 128.762 15.6992 128.723C7.70313 128.684 1.72656 123.582 0.339844 115.711C0.300782 115.355 0.179687 115.039 0.0625 114.723V101.355C0.140624 100.961 0.300782 100.566 0.339844 100.168C0.773438 95.4649 2.28125 91.0742 4.65625 87.0391C10.6328 76.957 19.5 70.3906 30.2305 66.1211C30.9414 65.8438 31.6523 65.5664 32.0508 65.4063C28.6445 62.5625 25.0039 59.9492 21.875 56.8281C15.9766 50.8945 12.2148 43.6953 12.0586 35.0742C11.7422 19.3359 22.668 5.10156 37.9492 1.18359C39.6914 0.75 41.4727 0.394531 43.2539 0H50.5781Z" fill="#C88097"/>
</g>
<path d="M72.1914 86.5273C69.8555 84.8242 67.4414 83.2812 65.2656 81.4258C58.7734 75.9258 53.8633 69.2851 52.4375 60.7031C50.8164 50.9336 53.3086 42.0351 59.5625 34.4414C68.5117 23.5273 80.2695 19.0976 94.0859 22.1055C108.652 25.2695 117.68 34.7187 120.926 49.2734C123.418 60.3867 119.738 69.875 112.059 77.8672C109.168 80.832 105.605 83.1641 102.32 85.7734C102.004 86.0117 101.684 86.2109 101.172 86.5273C103.031 87.3164 104.773 87.9492 106.438 88.7422C116.57 93.4844 124.844 100.25 130.031 110.371C132.207 114.605 133.434 119.113 133.277 123.938C133.156 127.773 133.238 131.609 133.238 135.484C133.238 142.324 128.172 148.457 121.441 149.723C120.41 149.918 119.34 150 118.273 150H55.207C47.2109 150 40.4414 143.867 40.2031 135.879C40.0469 130.184 39.9297 124.41 40.7578 118.797C42.0664 110.055 47.1719 103.215 53.6641 97.4023C58.7305 92.8516 64.5508 89.5312 70.9258 87.1601C71.3203 87 71.6758 86.8828 72.0352 86.7226C72.1523 86.6836 72.1914 86.5664 72.1914 86.5273Z" fill="white"/>
</svg>
