<svg width="156" height="159" viewBox="0 0 156 159" fill="none" xmlns="http://www.w3.org/2000/svg">
<path d="M27.3974 41.9514C33.3767 47.944 49.7309 28.0634 45.6501 21.1483C41.5383 14.2065 27.6858 1.58711 26.7676 1.58711C25.8184 1.58711 49.416 -5.35466 62.6386 9.79748C75.8568 24.9541 69.5626 49.2126 69.5626 49.2126L155.756 132.155C158.289 141.922 140.355 157.997 136.559 154.222C133.077 150.735 52.5786 66.5559 50.9019 65.9837C48.8438 65.2873 46.5993 66.1434 44.4481 66.4273C32.6492 67.9487 19.9988 64.0187 11.9304 55.2361C3.86637 46.4536 1.08079 32.8184 6.01766 21.9423C6.04871 21.9423 21.4226 35.9589 27.3974 41.9514Z" fill="white"/>
<path d="M4.27891 126.894C10.1295 121.026 40.6201 88.1797 49.3849 79.3971C58.1453 70.6146 73.741 77.4277 73.741 77.4277L126.782 27.7131L130.198 20.1991L143.327 11.004L149.431 17.8216L141.872 30.9156L132.225 34.4375L83.1003 84.7864L84.8435 92.5532C86.1697 98.5147 84.2713 104.76 79.8445 108.947C71.3369 116.967 56.6283 131.015 43.1839 144.49C22.7489 164.974 14.6539 159.075 7.47257 151.654C-2.23704 141.54 -1.57613 132.758 4.27891 126.894Z" fill="white"/>
<path d="M59.1256 80.6656C59.5381 80.3773 60.0127 80.0624 60.5184 80.1245C60.993 80.1866 61.339 80.537 61.5918 80.9495C62.8914 83.1984 60.9619 85.8953 59.1566 87.7671C56.0251 91.0007 52.8935 94.2343 49.793 97.4678C42.2657 105.235 34.7695 113.006 27.0515 120.582C24.7405 122.835 8.32418 140.782 5.70272 139.101C1.99896 136.723 14.8756 124.8 16.1087 123.594C22.9086 116.745 29.2027 109.422 35.7497 102.351C42.931 94.5181 50.4894 86.911 59.1256 80.6656ZM48.9103 131.649C55.4883 124.61 61.8136 117.317 68.6445 110.5C69.8465 109.293 82.8163 97.4368 79.117 95.0282C76.4911 93.3161 59.9772 111.196 57.6707 113.449C49.9216 120.963 42.3588 128.699 34.8005 136.435C31.669 139.637 28.5063 142.871 25.3748 146.074C23.5739 147.945 21.6134 150.642 22.9086 152.891C23.1303 153.304 23.5074 153.654 23.982 153.716C24.4877 153.778 24.9623 153.463 25.3748 153.175C34.042 146.996 41.6314 139.447 48.9103 131.649ZM12.7864 147.724C13.607 148.074 14.5563 147.852 15.1906 147.218L21.8972 140.746C25.122 137.61 28.3821 134.501 31.6069 131.365C34.042 129.019 36.4461 126.703 38.8192 124.29C40.9394 122.17 43.0242 120.01 45.1134 117.823C50.587 112.15 59.4405 102.702 64.9141 97.0243C67.0343 94.8375 69.2787 92.1406 69.5937 89.2885C69.7223 88.1486 68.4892 87.3546 67.5089 87.9578C66.2403 88.7163 65.1048 89.6034 63.9338 90.5261C56.34 96.4876 34.9602 118.267 32.871 120.551C30.6266 123.026 6.74509 145.093 12.7864 147.724Z" fill="white"/>
</svg>
